<?xml version="1.0" encoding="utf-8"?>
<!-- Generator: Adobe Illustrator 17.0.0, SVG Export Plug-In . SVG Version: 6.00 Build 0)  -->
<!DOCTYPE svg PUBLIC "-//W3C//DTD SVG 1.1//EN" "http://www.w3.org/Graphics/SVG/1.1/DTD/svg11.dtd">
<svg version="1.1" id="Capa_1" xmlns="http://www.w3.org/2000/svg" xmlns:xlink="http://www.w3.org/1999/xlink" x="0px" y="0px"
	 width="804.733px" height="400.26px" viewBox="0 0 804.733 400.26" enable-background="new 0 0 804.733 400.26"
	 xml:space="preserve">
<g>
	<polygon points="357.482,135.309 357.482,146.196 361.866,146.196 361.866,144.182 359.589,144.182 359.589,141.337 
		361.866,141.337 361.866,139.323 359.589,139.323 359.589,137.324 361.866,137.324 361.866,135.309 	"/>
	<g>
		<path d="M369.769,142.675v0.775c0,0.642,0.24,0.963,0.723,0.963c0.256,0,0.44-0.082,0.553-0.246
			c0.113-0.164,0.169-0.436,0.169-0.817c0-0.164-0.01-0.303-0.031-0.416c-0.02-0.113-0.067-0.223-0.138-0.331
			c-0.072-0.108-0.17-0.218-0.293-0.331c-0.123-0.113-0.282-0.246-0.477-0.401l-1.03-0.785c-0.276-0.215-0.507-0.413-0.691-0.593
			c-0.184-0.18-0.331-0.375-0.438-0.586c-0.108-0.21-0.182-0.446-0.223-0.709c-0.042-0.262-0.062-0.582-0.062-0.963
			c0-0.369,0.017-0.68,0.054-0.932c0.035-0.251,0.079-0.464,0.13-0.639c0.05-0.175,0.112-0.318,0.183-0.431
			c0.071-0.114,0.143-0.21,0.215-0.294c0.174-0.205,0.436-0.393,0.789-0.562c0.353-0.169,0.805-0.249,1.357-0.238
			c0.348,0,0.677,0.039,0.989,0.115c0.312,0.077,0.585,0.212,0.821,0.407c0.235,0.195,0.422,0.457,0.559,0.785
			c0.138,0.327,0.208,0.748,0.208,1.26v1.062h-1.922c0-0.094,0.003-0.231,0.008-0.412c0.005-0.181-0.011-0.362-0.046-0.543
			c-0.036-0.182-0.102-0.339-0.2-0.474c-0.098-0.134-0.254-0.197-0.469-0.186c-0.236,0.011-0.409,0.09-0.522,0.239
			c-0.113,0.149-0.164,0.392-0.154,0.731c0,0.196,0.028,0.368,0.084,0.517c0.056,0.149,0.14,0.287,0.252,0.415
			c0.113,0.128,0.25,0.263,0.413,0.401c0.164,0.139,0.357,0.295,0.582,0.47c0.225,0.175,0.457,0.357,0.697,0.546
			c0.239,0.19,0.459,0.391,0.657,0.602c0.199,0.21,0.365,0.429,0.498,0.655c0.132,0.226,0.204,0.462,0.213,0.708v1.263
			c0,0.883-0.214,1.552-0.644,2.003c-0.43,0.451-1.16,0.692-2.193,0.723c-0.49,0.02-0.938-0.067-1.342-0.262
			c-0.404-0.194-0.692-0.44-0.866-0.738c-0.082-0.123-0.151-0.264-0.207-0.423c-0.057-0.158-0.102-0.346-0.138-0.561
			c-0.036-0.215-0.059-0.466-0.069-0.754c-0.01-0.287-0.01-0.625,0-1.015H369.769z"/>
	</g>
	<polygon points="378.857,135.309 378.857,137.371 380.364,137.371 380.364,146.196 382.47,146.196 382.486,137.371 
		384.039,137.371 384.039,135.309 	"/>
	<g>
		<path d="M389.021,145.367c0-0.297,0.102-0.551,0.308-0.762c0.205-0.21,0.451-0.315,0.738-0.315c0.297,0,0.548,0.105,0.754,0.315
			c0.205,0.21,0.307,0.464,0.307,0.762c0,0.287-0.102,0.528-0.307,0.723c-0.206,0.194-0.457,0.292-0.754,0.292
			c-0.297,0-0.546-0.098-0.745-0.292C389.121,145.895,389.021,145.653,389.021,145.367"/>
	</g>
	<polygon points="405.814,146.197 405.814,138.293 404.675,138.293 405.275,135.786 407.858,135.786 407.858,146.197 	"/>
	<g>
		<path d="M417.162,137.677c-0.082-0.123-0.226-0.184-0.431-0.184c-0.4,0-0.6,0.277-0.6,0.83v1.245c0,0.401,0.043,0.677,0.13,0.831
			c0.087,0.154,0.249,0.23,0.485,0.23c0.194,0,0.333-0.067,0.415-0.2s0.124-0.358,0.124-0.677v-1.476
			C417.285,138.001,417.244,137.801,417.162,137.677 M416.132,143.844c0.061,0.452,0.251,0.677,0.569,0.677
			c0.215,0,0.369-0.085,0.461-0.254c0.092-0.169,0.138-0.459,0.138-0.869v-1.692c-0.338,0.41-0.778,0.615-1.323,0.615
			c-0.205,0-0.397-0.025-0.576-0.076c-0.18-0.051-0.346-0.118-0.499-0.201c-0.144-0.092-0.265-0.202-0.361-0.33
			c-0.098-0.127-0.178-0.294-0.238-0.5c-0.062-0.205-0.106-0.453-0.131-0.745c-0.025-0.293-0.039-0.643-0.039-1.053
			c0-0.409,0.008-0.761,0.023-1.053s0.041-0.546,0.077-0.761c0.036-0.215,0.084-0.403,0.146-0.562
			c0.062-0.158,0.138-0.315,0.231-0.468c0.195-0.297,0.487-0.531,0.877-0.7c0.39-0.169,0.851-0.254,1.384-0.254
			c0.471,0,0.884,0.082,1.238,0.246c0.354,0.164,0.629,0.395,0.823,0.691c0.144,0.226,0.246,0.485,0.308,0.777
			c0.062,0.292,0.093,0.674,0.093,1.146v4.751c0,0.266-0.006,0.497-0.015,0.692c-0.011,0.194-0.031,0.372-0.062,0.53
			c-0.031,0.159-0.072,0.308-0.123,0.446c-0.052,0.138-0.113,0.279-0.184,0.423c-0.175,0.328-0.457,0.587-0.847,0.776
			c-0.389,0.19-0.851,0.285-1.384,0.285c-0.472,0-0.889-0.079-1.253-0.238c-0.364-0.158-0.654-0.387-0.869-0.684
			c-0.071-0.103-0.133-0.203-0.184-0.3c-0.051-0.098-0.093-0.208-0.123-0.33c-0.031-0.124-0.06-0.265-0.085-0.424
			c-0.026-0.158-0.043-0.346-0.054-0.561H416.132z"/>
		<path d="M425.466,138.417v-0.338c0-0.799,0.233-1.414,0.7-1.845c0.466-0.431,1.109-0.635,1.93-0.615
			c0.4,0.011,0.753,0.062,1.061,0.154c0.307,0.093,0.566,0.257,0.776,0.492c0.21,0.236,0.366,0.558,0.469,0.968
			c0.102,0.409,0.149,0.933,0.138,1.568c-0.01,0.297-0.031,0.546-0.062,0.746c-0.031,0.2-0.087,0.375-0.169,0.522
			c-0.082,0.149-0.192,0.274-0.33,0.377c-0.139,0.102-0.321,0.206-0.546,0.308c0.215,0.071,0.395,0.164,0.539,0.277
			c0.143,0.112,0.259,0.274,0.346,0.484c0.087,0.21,0.147,0.482,0.177,0.815c0.031,0.333,0.046,0.756,0.046,1.269
			c0,0.502-0.062,0.928-0.184,1.276c-0.124,0.349-0.3,0.632-0.531,0.853c-0.23,0.22-0.512,0.381-0.846,0.484
			c-0.333,0.102-0.714,0.159-1.145,0.17c-0.77,0.02-1.386-0.209-1.854-0.685c-0.466-0.477-0.699-1.151-0.699-2.022v-0.17
			c0-0.071,0.005-0.143,0.015-0.215h1.999c0,0.431,0.043,0.743,0.131,0.938c0.087,0.195,0.248,0.287,0.484,0.277
			c0.175-0.011,0.302-0.059,0.385-0.147c0.082-0.087,0.138-0.202,0.169-0.346c0.031-0.144,0.046-0.313,0.046-0.508v-0.661
			c0-0.307-0.008-0.55-0.023-0.73c-0.015-0.179-0.059-0.32-0.13-0.423c-0.072-0.102-0.173-0.169-0.3-0.2
			c-0.128-0.031-0.305-0.056-0.531-0.077v-1.644c0.287-0.011,0.505-0.052,0.654-0.124c0.149-0.071,0.251-0.158,0.308-0.262
			c0.056-0.101,0.084-0.22,0.084-0.353v-0.431c0-0.44-0.048-0.733-0.146-0.876c-0.098-0.144-0.254-0.215-0.469-0.215
			c-0.41,0-0.615,0.302-0.615,0.907H425.466z"/>
		<path d="M439.597,137.677c-0.082-0.123-0.226-0.184-0.431-0.184c-0.4,0-0.6,0.277-0.6,0.83v1.245c0,0.401,0.043,0.677,0.13,0.831
			c0.088,0.154,0.249,0.23,0.485,0.23c0.195,0,0.333-0.067,0.415-0.2c0.082-0.133,0.124-0.358,0.124-0.677v-1.476
			C439.721,138.001,439.679,137.801,439.597,137.677 M438.567,143.844c0.062,0.452,0.251,0.677,0.569,0.677
			c0.215,0,0.37-0.085,0.462-0.254c0.093-0.169,0.139-0.459,0.139-0.869v-1.692c-0.339,0.41-0.779,0.615-1.323,0.615
			c-0.206,0-0.398-0.025-0.577-0.076c-0.18-0.051-0.346-0.118-0.499-0.201c-0.144-0.092-0.265-0.202-0.361-0.33
			c-0.098-0.127-0.178-0.294-0.238-0.5c-0.062-0.205-0.105-0.453-0.131-0.745c-0.025-0.293-0.039-0.643-0.039-1.053
			c0-0.409,0.008-0.761,0.024-1.053c0.014-0.293,0.041-0.546,0.076-0.761c0.036-0.215,0.084-0.403,0.146-0.562
			c0.062-0.158,0.139-0.315,0.231-0.468c0.195-0.297,0.487-0.531,0.877-0.7c0.39-0.169,0.851-0.254,1.384-0.254
			c0.472,0,0.884,0.082,1.238,0.246c0.354,0.164,0.629,0.395,0.824,0.691c0.143,0.226,0.245,0.485,0.307,0.777
			c0.062,0.292,0.093,0.674,0.093,1.146v4.751c0,0.266-0.006,0.497-0.015,0.692c-0.011,0.194-0.031,0.372-0.062,0.53
			c-0.031,0.159-0.071,0.308-0.123,0.446c-0.052,0.138-0.113,0.279-0.184,0.423c-0.175,0.328-0.457,0.587-0.846,0.776
			c-0.39,0.19-0.852,0.285-1.384,0.285c-0.472,0-0.889-0.079-1.253-0.238c-0.364-0.158-0.654-0.387-0.869-0.684
			c-0.071-0.103-0.133-0.203-0.184-0.3c-0.051-0.098-0.093-0.208-0.123-0.33c-0.031-0.124-0.059-0.265-0.085-0.424
			c-0.025-0.158-0.043-0.346-0.053-0.561H438.567z"/>
		<path d="M605.056,175.479c1.115-1.105,1.885-0.474,2.978,0.625c1.098,1.097,3.308,3.446,3.308,3.446s2.029,2.035,6.559-0.625
			l7.849-7.208l-1.707-2.042l-2.576,1.917c0,0-0.366,0.355-3.125-1.644c0,0-2.148-1.523-3.724-2.779
			c-1.558-1.261-4.845-0.466-6.122,0.613l-7.985,7.697l2.352,2.043C602.862,177.522,603.968,176.577,605.056,175.479
			 M629.059,231.297l-1.717,1.721l-5.5-5.486v-24.453c0,0,0.617-2.185,2.67-2.043l-12.39-12.391l-11.219,8.855l2.438,2.436
			l2.014-1.263l2.849,3.144v25.889c0,0-0.253,2.421-1.718,3.904l14.253,12.233l10.437-10.422L629.059,231.297z M682.848,231.774
			l-1.724,1.726l-5.487-5.489v-24.471c0,0,0-0.929,0.795-1.869l-16.171-13.962l-11.516,9.491l-8.315-8.317l-11.211,8.858l2.432,2.43
			l2.036-1.245l2.807,3.136v25.86c0,0-0.233,2.436-1.72,3.933l14.285,12.227l10.426-10.429l-2.14-2.118l-1.72,1.726l-5.485-5.494
			v-26.971l0.244-0.082l2.978-2.504l8.613,6.584v23.37c0,0-0.218,2.424-1.716,3.922l14.282,12.223l10.436-10.419L682.848,231.774z
			 M596.283,209.193c0.09-0.035-11.809-11.745-11.613-11.925c-3.063,4.081-12.874,11.188-12.621,9.282
			c0.38-2.433-2.741-4.47-4.852-2.823c-1.464,1.158-2.042,3.304-1.1,4.699c3.452,5.089,6.956-0.469,9.589,0.572
			c2.214,0.864,5.448,4.929,5.328,4.663v19.325c-0.284,7.086-10.018,12.246-17.024,6.3c-6.325-5.341-11.438-21.435-10.979-34.938
			c0.527-15.434,2.067-27.836,5.115-31.874c0.246-0.306,10.202,11.31,23.371,7.454c7.241-2.131,15.438-9.091,13.685-17.087
			c-0.41-1.867-1.807-2.856-3.623-2.545c-2.082,0.344-3.746,3.07-2.524,4.879c0.794,1.215,2.589,1.507,2.044,2.223
			c-6.066,7.693-16.204-0.296-22.076-5.253c-14.255,3.806-26.018,14.893-30.466,28.948c-6.325,19.87-0.034,44.473,20.997,52.702
			c14.431,5.65,26.232-2.318,38.321-8.885c-1.483-3.184-1.483-4.367-1.591-7.86L596.283,209.193z M472.257,180.444
			c2.577,1.656,1.529,3.401,1.529,3.401l-1.507,2.401l2.087,1.666l6.989-8.052c2.524-4.626,0.58-6.281,0.58-6.281
			s-2.572-2.438-3.704-3.515c-1.109-1.057-1.775-1.824-0.711-2.949c1.08-1.133,1.971-2.256,1.971-2.256l-2.1-2.292l-7.455,8.214
			c-1.046,1.288-1.734,4.595-0.456,6.124C470.792,178.449,472.257,180.444,472.257,180.444 M508.844,204.818
			c-17.18-8.147-20.165-8.9-20.694-13.121c-0.497-4.229,3.222-6.306,3.222-6.306s10.03,11.055,23.084,2.42
			c10.129-6.687,1.787-15.193-0.721-10.021c-0.776,1.574,0.499,3.124,1.438,3.118c0.941-0.008,0.042,1.811-0.909,1.886
			c-4.235,0.36-8.043,0.71-14.823-6.113c-1.015-1.016-29.321,15.197-13.147,33.077c0,0,4.013,4.569,17.502,8.902
			c3.311,1.061,10.895,6.427,9.355,10.42c-0.889,2.358-2.908,4.662-4.727,5.684c0,0-17.704-15.732-29.485-1.501
			c0,0-3.156,4.912-0.784,7.622c2.588,2.959,6.249,0.34,4.982-2.709c-0.798-1.936-1.745-1.558-1.745-1.558s-0.182-2.197,2.331-2.219
			c2.514-0.021,9.269,1.472,18.461,9.377c0,0,12.142-8.853,15.398-13.806C520.325,225.711,526.018,212.952,508.844,204.818
			 M448.968,233.337c-1.397,1.401-2.672-0.327-2.672-0.327l-3.137-3.137v-38.728l4.691-3.929l6.141,6.438v35.44l-0.096,0.656
			c0,1.735-1.248,2.529-1.248,2.529l12.474,12.141l11.393-9.96l-2.377-2.181l-1.413,1.089c-1.395,1.416-2.659-0.318-2.659-0.318
			l-3.923-3.772l-0.078,0.132v-36.228c-0.306-1.573,1.096-1.886,1.096-1.886l-13.168-14.589l-13.096,10.435l-9.566-10.508
			l-12.942,10.582l-10.983-10.819l-10.987,10.974l2.285,2.289l2.594-2.289l6.259,6.283v35.756c0.161,2.198-1.244,2.824-1.244,2.824
			l12.695,12.074l10.214-9.73l-2.296-2.432l-1.323,1.336c-1.412,1.88-2.904-0.393-2.904-0.393l-2.757-3.217v-38.576l4.559-3.596
			l5.643,5.628v35.767c0,1.725-0.776,2.973-0.776,2.973l11.99,12.314l11.381-9.643l-2.38-2.504L448.968,233.337z M377.451,233.621
			l-7.598-5.386l0.146-41.093l9.582,7.84l0.066,36.466L377.451,233.621z M400.759,229.792l-2.365,2.354l-5.634-5.488v-32.846
			c-0.176-2.978,0.926-2.899,0.926-2.899l-17.565-14.279l-20.529,16.152c1.857,0.468,2.019,2.514,2.019,2.514v34.034
			c0.162,2.502-1.261,3.133-1.261,3.133l17.734,11.765l9.897-9.752l8.714,8.775l10.72-10.787L400.759,229.792z M296.688,257.475
			c-4.695,1.264-10.746,1.142-10.513-5.798c0.327-9.253,12.243-16.619,12.243-16.619c0.153,13.022-0.145,14.427,5.48,17.085
			C303.898,252.143,301.389,256.217,296.688,257.475 M289.091,186.988l9.558,7.84l0.081,33.638l-3.135,2.323l-6.504-5.074V186.988z
			 M311.833,241.56v-47.906c-0.181-2.98,0.938-2.912,0.938-2.912l-17.573-14.255l-20.53,16.154c1.873,0.458,2.014,2.504,2.014,2.504
			v30.263c0.169,2.501-1.23,3.135-1.23,3.135l11.445,9.097c0,0-9.135,5.813-11.619,11.072c-6.467,13.731,9.182,21.199,22.995,12.992
			c7.59-4.511,11.748-12.538,16.939-15.044l-0.172-0.166C313.628,246.66,312.314,244.851,311.833,241.56 M321.161,231.992
			l14.417,12.389l11.453-11.444l-2.353-2.35l-4.081,4.076l-5.497-5.178v-40.929l5.497-4.711c6.434,2.507,3.301,19.446,3.301,19.446
			c22.111-16.619,0.614-28.064,0.614-28.064l-11.585,9.879l-7.707-8.619l-11.592,10.024l1.583,2.045l2.032-0.944
			c2.983-1.572,5.162,3.763,5.162,3.763v38.895C322.251,232.146,321.161,231.992,321.161,231.992 M249.1,233.621l-7.608-5.386
			l0.162-41.093l9.556,7.84l0.071,36.466L249.1,233.621z M275.04,232.467l-2.655-2.674l-2.357,2.354l-5.631-5.488v-32.846
			c-0.175-2.978,0.938-2.899,0.938-2.899l-17.557-14.279l-20.57,16.152c1.91,0.468,2.063,2.514,2.063,2.514v34.034
			c0.139,2.502-1.26,3.133-1.26,3.133l17.705,11.765l9.908-9.752l8.726,8.775L275.04,232.467z M203.231,187.216l10.51,14.431
			l-10.51,8.314V187.216z M222.363,226.899l-7.664,6.584l-11.468-9.249v-9.727l21.795-16.305l-16.169-21.641l-20.525,16.145
			c1.86,0.477,2.028,2.51,2.028,2.51v30.9c0.169,2.507-1.248,3.127-1.248,3.127l18.821,14.905l16.47-15.053L222.363,226.899z
			 M161.098,185.249c-30.131-11.71-23.341-28.771-18.099-31.561c0.35-0.182,11.128,10.99,24.299,7.131
			c7.251-2.119,15.442-9.079,13.685-17.082c-0.407-1.867-1.811-2.846-3.609-2.542c-2.077,0.354-3.741,3.074-2.556,4.876
			c0.802,1.209,2.623,1.512,2.057,2.231c-6.05,7.689-16.2-0.305-22.074-5.263c-14.255,3.818-29.245,14.26-28.584,33.339
			c0.161,4.624,3.753,13.467,12.873,19.323c8.592,5.497,23.759,8.767,31.601,18.885c7.441,9.602,0.926,15.682-1.576,18.661
			c0,0-9.733-6.743-12.3-7.912c-23.209-10.549-34.979,7.835-34.979,7.835c-3.773,5.012-1.38,9.911-0.791,10.588
			c2.944,3.357,8.669-1.097,5.093-5.11c-1.508-1.703-0.848-2.026-0.848-2.026c14.122-10.66,34.494,10.038,34.494,10.038
			c12.401-7.218,21.487-20.856,21.487-20.856C195.065,202.269,166.736,187.446,161.098,185.249"/>
	</g>
</g>
</svg>
